HIERARCHY
ROOT pelvis
{
	OFFSET 0.000000 0.000000 0.000000
	CHANNELS 6 Xposition Yposition Zposition Zrotation Xrotation Yrotation
	JOINT lfemur
	{
		OFFSET 11.446000 0.000000 0.000000
		CHANNELS 3 Zrotation Xrotation Yrotation
		JOINT ltibia
		{
			OFFSET 0.000000 -42.030400 0.000000
			CHANNELS 3 Zrotation Xrotation Yrotation
			JOINT lfoot
			{
				OFFSET 0.000000 -39.930200 0.000000
				CHANNELS 3 Zrotation Xrotation Yrotation
				JOINT ltoes
				{
					OFFSET 0.000000 0.000000 11.775800
					CHANNELS 3 Zrotation Xrotation Yrotation
					End Site
					{
					    OFFSET 0.000000 0.000000 5.000000
					}
				}
			}
		}
	}
	JOINT rfemur
	{
		OFFSET -11.446000 0.000000 0.000000
		CHANNELS 3 Zrotation Xrotation Yrotation
		JOINT rtibia
		{
			OFFSET 0.000000 -42.030400 0.000000
			CHANNELS 3 Zrotation Xrotation Yrotation
			JOINT rfoot
			{
				OFFSET 0.000000 -39.930200 0.000000
				CHANNELS 3 Zrotation Xrotation Yrotation
				JOINT rtoes
				{
					OFFSET 0.000000 0.000000 11.775800
					CHANNELS 3 Zrotation Xrotation Yrotation
					End Site
					{
					    OFFSET 0.000000 0.000000 5.000000
					}
				}
			}
		}
	}
	JOINT thorax
	{
		OFFSET 0.000000 11.255600 -5.000000
		CHANNELS 3 Zrotation Xrotation Yrotation
		JOINT head
		{
			OFFSET 0.000000 43.799300 0.000000
			CHANNELS 3 Zrotation Xrotation Yrotation
			End Site
			{
			    OFFSET 0.000000 5.000000 0.000000
			}
		}
		JOINT lclavicle
		{
			OFFSET 0.000000 39.863000 0.000000
			CHANNELS 3 Zrotation Xrotation Yrotation
			JOINT lhumerus
			{
				OFFSET 17.380600 4.958300 0.000000
				CHANNELS 3 Zrotation Xrotation Yrotation
				JOINT lradius
				{
					OFFSET 0.000000 -27.561300 0.000000
					CHANNELS 3 Zrotation Xrotation Yrotation
					JOINT lhand
					{
						OFFSET 0.000000 -26.933000 0.000000
						CHANNELS 3 Zrotation Xrotation Yrotation
						End Site
						{
						    OFFSET 0.000000 -5.000000 0.000000
						}
					}
				}
			}
		}
		JOINT rclavicle
		{
			OFFSET 0.000000 39.863000 0.000000
			CHANNELS 3 Zrotation Xrotation Yrotation
			JOINT rhumerus
			{
				OFFSET -17.380600 4.958300 0.000000
				CHANNELS 3 Zrotation Xrotation Yrotation
				JOINT rradius
				{
					OFFSET 0.000000 -27.561300 0.000000
					CHANNELS 3 Zrotation Xrotation Yrotation
					JOINT rhand
					{
						OFFSET 0.000000 -26.933000 0.000000
						CHANNELS 3 Zrotation Xrotation Yrotation
						End Site
						{
						    OFFSET 0.000000 -5.000000 0.000000
						}
					}
				}
			}
		}
	}
}
MOTION
Frames: 19
Frame Time:	0.0333333
74.402100 84.722800 -0.273000 6.142350 -3.416058 -99.585119 -3.145897 -25.301922 -1.263024 -0.000000 36.057662 -0.000000 -0.000000 -2.856988 5.955288 -0.000000 -1.442275 0.000000 0.860375 -19.576971 4.536031 0.000000 34.140257 -0.000000 -0.000000 -7.969354 -2.023003 -0.000000 -29.532235 -0.000000 -5.857545 10.875582 -2.822673 6.303969 13.619553 11.546101 -15.790469 0.000000 -0.769542 29.810340 -1.475724 -17.703094 180.000033 -63.735561 159.878731 19.233718 -4.487027 0.000000 24.903347 -0.000000 -2.857617 -38.996819 1.383433 35.873358 180.000037 -69.178673 -169.694065 -0.367165 -3.378124 -0.000000 
74.061900 84.660800 -0.424100 6.809097 -3.551810 -99.260841 -3.307693 -25.993652 -1.647971 -0.000000 36.633642 -0.000000 -0.000000 -3.462172 6.048898 -0.000000 -1.441459 -0.000000 1.009642 -19.988618 4.898761 -0.000000 34.281734 -0.000000 -0.000000 -8.424575 -2.513896 -0.000000 -29.529892 0.000000 -6.226881 11.074345 -2.878877 5.703883 11.724906 11.826287 -15.953131 0.000000 -0.801535 29.628460 -0.894583 -19.001655 -180.000033 -64.360013 159.574489 17.940658 -5.452655 -0.000000 24.784122 0.000000 -2.975205 -38.529935 2.570263 35.832734 180.000035 -69.625862 -168.750931 -0.410163 -3.362194 -0.000000 
73.669500 84.483000 -0.578000 7.657146 -3.700847 -98.794626 -3.506587 -27.034194 -2.058971 0.000000 37.432624 -0.000000 0.000000 -3.522384 5.934927 -0.000000 -1.430630 -0.000000 1.121210 -20.870436 5.137918 -0.000000 35.091019 -0.000000 0.000000 -9.042351 -2.950358 0.000000 -29.529407 0.000000 -6.743970 11.268742 -3.016643 5.148951 9.979742 12.570023 -16.083338 -0.000000 -0.819655 29.639306 0.049083 -20.497895 -180.000036 -64.396474 159.331917 17.827708 -5.853888 -0.000000 24.976475 0.000000 -3.658951 -38.720792 3.167580 35.940844 -180.000036 -70.065063 -168.265367 0.132742 -3.548805 -0.000000 
73.125500 84.286100 -0.775700 8.414283 -3.610769 -98.447828 -3.362885 -27.951185 -2.156358 0.000000 38.474061 -0.000000 0.000000 -3.763172 5.964034 0.000000 -1.428668 -0.000000 1.439241 -21.356040 5.232831 -0.000000 35.575328 -0.000000 -0.000000 -9.678992 -3.428660 -0.000000 -29.528451 0.000000 -7.219105 11.529200 -3.239041 4.864996 8.363723 12.914643 -16.280262 0.000000 -0.709826 30.012156 1.551329 -21.662517 180.000036 -63.867720 158.484030 18.232819 -6.316792 -0.000000 25.261205 0.000000 -4.068244 -39.108341 4.092102 35.806662 -180.000037 -70.145314 -167.793997 -1.000827 -3.164324 0.000000 
72.415600 83.987200 -0.863400 9.170067 -3.690672 -98.368945 -3.399434 -28.972074 -2.047310 0.000000 39.987197 -0.000000 0.000000 -4.511382 6.224630 -0.000000 -1.411648 -0.000000 1.494869 -22.120119 5.238124 -0.000000 36.682481 -0.000000 0.000000 -10.573936 -3.531001 -0.000000 -29.529264 -0.000000 -7.754883 11.744656 -3.187997 4.448375 7.334784 13.336707 -16.626899 0.000000 -0.583905 30.517849 2.888585 -22.498603 -180.000035 -63.204415 158.423886 18.486087 -6.575733 0.000000 24.921640 0.000000 -4.702091 -39.084629 4.891540 35.498921 180.000032 -70.124481 -166.851746 -1.860179 -2.872400 -0.000000 
71.507800 83.529000 -0.960300 9.717439 -3.444418 -98.211890 -3.092637 -29.991756 -1.714829 -0.000000 42.210776 0.000000 0.000000 -5.460653 5.962193 -0.000000 -1.407829 -0.000000 1.785257 -22.587744 5.041834 0.000000 38.042502 0.000000 0.000000 -11.871320 -3.655531 0.000000 -29.528949 -0.000000 -8.021835 11.993844 -3.214383 4.081046 6.787900 13.325855 -17.108035 0.000000 -0.260751 31.192622 3.925758 -23.119219 180.000034 -62.759668 158.201515 18.531808 -7.007006 0.000000 24.606601 0.000000 -5.100764 -39.417948 5.951497 34.944125 180.000036 -69.893554 -167.745233 -1.562949 -2.972560 -0.000000 
70.345900 82.965700 -0.968400 9.954922 -3.448592 -97.925054 -3.314129 -30.576496 -1.788359 -0.000000 44.451772 -0.000000 -0.000000 -6.825312 5.806388 -0.000000 -1.415772 -0.000000 1.722742 -22.830567 4.962910 -0.000000 39.955696 -0.000000 0.000000 -13.516963 -3.831051 0.000000 -29.530834 0.000000 -8.590336 12.536028 -3.381047 3.859352 6.398006 13.509934 -17.422244 -0.000000 0.113061 31.809536 4.702735 -23.414214 -180.000037 -62.389035 158.084728 18.380431 -7.294415 0.000000 24.361186 0.000000 -5.532995 -39.850958 6.721026 34.108971 180.000032 -69.647556 -167.105498 -1.836712 -2.882846 0.000000 
68.981600 82.204400 -0.965400 9.816027 -3.563410 -97.836885 -3.627517 -30.818811 -1.743884 0.000000 47.198693 -0.000000 0.000000 -8.719529 5.802525 -0.000000 -1.427992 0.000000 1.595502 -22.979935 4.915285 -0.000000 42.665755 0.000000 0.000000 -15.537253 -4.295123 -0.000000 -29.531316 -0.000000 -9.355890 13.255283 -3.505705 3.579482 6.402679 13.562348 -17.491292 0.000000 0.382667 32.289890 5.727131 -23.097134 180.000036 -61.827245 157.752061 18.193688 -7.405997 0.000000 24.187494 -0.000000 -5.765671 -40.560429 7.450055 33.178528 180.000037 -69.411383 -165.488314 -2.563561 -2.637233 -0.000000 
67.456300 81.251400 -0.858400 9.726173 -3.546276 -97.701401 -3.824678 -31.294139 -1.397499 0.000000 50.509208 -0.000000 -0.000000 -10.880648 5.645100 -0.000000 -1.427521 0.000000 1.468651 -23.169427 4.709732 0.000000 45.769404 -0.000000 0.000000 -17.739129 -4.522329 -0.000000 -29.532453 -0.000000 -9.816841 13.771323 -3.679579 3.104890 6.837455 14.011986 -17.705777 0.000000 0.503323 32.945337 6.916642 -22.456250 -180.000037 -61.142622 157.350198 18.770767 -7.434593 0.000000 23.909873 -0.000000 -6.212688 -41.217619 7.985344 32.063834 180.000036 -69.165016 -165.636423 -1.817707 -2.889112 -0.000000 
65.768500 80.004700 -0.708100 9.536252 -3.774568 -97.391045 -4.386545 -31.688870 -1.235037 -0.000000 54.273490 0.000000 -0.000000 -13.320557 5.291279 -0.000000 -1.438306 -0.000000 0.953175 -23.708195 4.222039 -0.000000 49.989236 0.000000 -0.000000 -20.098116 -4.890515 -0.000000 -29.536538 -0.000000 -10.461387 14.419928 -3.919537 2.666837 7.228067 14.580901 -17.661725 -0.000000 0.569683 33.543749 7.933708 -21.591770 180.000036 -60.314982 157.251838 18.732094 -7.641013 -0.000000 23.451285 0.000000 -6.449816 -41.637689 8.865602 30.559818 -180.000037 -68.606228 -165.187059 -1.922256 -2.857172 0.000000 
63.938500 78.510200 -0.554700 8.992265 -3.934148 -97.078264 -4.584396 -31.993271 -0.288432 -0.000000 58.816731 0.000000 0.000000 -15.601836 4.602543 0.000000 -1.458525 -0.000000 0.630246 -23.436800 3.982744 0.000000 53.953923 -0.000000 0.000000 -23.198989 -5.409663 0.000000 -29.535407 -0.000000 -10.995185 15.171393 -3.993294 2.011003 7.731075 15.069148 -17.783710 0.000000 0.515804 34.418616 9.064205 -20.581511 -180.000035 -59.541849 156.580938 18.608371 -7.578939 0.000000 23.229324 -0.000000 -7.086824 -42.457538 9.439651 29.291980 -180.000034 -68.037017 -165.138511 -2.370798 -2.704496 0.000000 
62.102600 76.926900 -0.277800 8.721844 -4.195680 -97.051434 -4.782073 -32.920263 0.781159 -0.000000 64.046513 0.000000 -0.000000 -17.039304 3.893801 0.000000 -1.465055 -0.000000 0.701408 -24.265571 5.021942 -0.000000 59.813495 -0.000000 0.000000 -24.514810 -6.236342 -0.000000 -29.538160 -0.000000 -11.501512 15.762412 -4.174126 1.265771 7.782708 15.680810 -18.059939 -0.000000 1.053376 35.299982 9.722624 -19.372924 -180.000036 -58.846894 157.790071 18.741851 -7.898022 -0.000000 23.042615 -0.000000 -7.452228 -43.332954 9.860427 28.207008 -180.000037 -67.694442 -163.706464 -3.347866 -2.372814 0.000000 
60.226500 75.197500 0.064800 8.201338 -4.966670 -96.965400 -5.730295 -33.993129 1.314477 0.000000 69.907964 -0.000000 -0.000000 -17.200728 3.328947 0.000000 -1.457817 -0.000000 0.338003 -26.450794 5.940519 -0.000000 68.253992 0.000000 -0.000000 -23.600318 -7.324922 0.000000 -29.538327 -0.000000 -12.671459 16.380563 -4.239539 0.726062 7.989598 16.144648 -18.136732 -0.000000 1.245701 36.001377 10.669859 -17.725716 -180.000031 -58.379642 157.495908 18.565680 -7.623802 -0.000000 22.686724 -0.000000 -7.843668 -43.712157 10.587639 26.592093 -180.000034 -67.478052 -163.024451 -2.222607 -2.755839 0.000000 
58.064300 73.393000 0.474400 7.198820 -5.494194 -96.734413 -6.585264 -34.592050 1.503392 -0.000000 76.030560 -0.000000 0.000000 -15.922545 2.475924 -0.000000 -1.497061 -0.000000 0.070245 -27.418397 6.533238 -0.000000 75.908641 -0.000000 -0.000000 -21.543765 -8.111767 -0.000000 -29.534967 -0.000000 -13.321105 17.562641 -4.484530 -0.196849 8.168280 16.517987 -18.563476 -0.000000 1.018306 36.732757 11.877411 -15.777258 180.000033 -57.922047 157.590715 18.052657 -7.706670 -0.000000 22.161252 -0.000000 -7.991017 -44.080154 11.708282 24.982759 -180.000036 -67.080817 -163.397896 -1.870372 -2.873678 0.000000 
55.612900 71.295900 0.927900 5.747272 -6.221760 -96.342226 -7.589886 -34.337583 1.590834 -0.000000 82.078626 -0.000000 0.000000 -15.105402 0.759978 0.000000 -1.528259 -0.000000 -0.881344 -27.778342 6.387194 -0.000000 83.573693 -0.000000 -0.000000 -19.461112 -8.479580 -0.000000 -29.532907 -0.000000 -14.090590 18.957757 -4.765664 -0.984782 8.681373 16.651619 -18.481835 -0.000000 1.199955 36.981234 12.497996 -14.602461 180.000033 -57.635365 157.778879 17.231194 -7.526082 -0.000000 21.459949 0.000000 -8.145479 -44.603330 13.186492 23.575858 -180.000036 -66.348095 -164.045377 -1.536783 -2.986325 -0.000000 
52.973200 68.838900 1.371800 4.637284 -6.547594 -95.760971 -8.151400 -34.212108 1.639739 -0.000000 88.344042 -0.000000 0.000000 -14.340879 -1.092949 -0.000000 -1.530917 -0.000000 -1.695942 -27.652344 5.556062 180.000037 89.791422 -180.000037 -0.000000 -17.583915 -9.389327 0.000000 -29.534164 -0.000000 -14.202354 19.704112 -5.255873 -1.949439 9.675809 16.904091 -18.568316 0.000000 1.509852 37.312518 13.133919 -13.846028 180.000034 -57.581417 157.942116 16.305061 -7.747606 -0.000000 20.765597 -0.000000 -8.505952 -45.372230 14.672380 22.606439 180.000036 -65.757137 -163.227969 -2.291252 -2.727820 -0.000000 
49.950800 66.164800 1.819500 3.502919 -6.710085 -95.278799 -8.385406 -33.655031 2.058581 -180.000037 85.383989 -180.000037 -0.000000 -13.318659 -2.817515 -0.000000 -1.546887 -0.000000 -2.619261 -26.483847 4.363467 -180.000037 84.090201 180.000037 0.000000 -16.392789 -10.220469 0.000000 -29.536763 0.000000 -14.000001 20.054989 -5.701047 -3.443180 11.356352 17.824523 -18.260946 0.000000 2.259431 37.056010 13.805889 -13.385489 180.000030 -57.877437 156.720987 16.796618 -8.204843 -0.000000 19.582975 0.000000 -9.224248 -45.969495 16.107515 22.454014 -180.000037 -65.443540 -161.972063 -2.611824 -2.617177 -0.000000 
46.589000 63.248400 2.343400 2.376290 -7.011947 -94.894709 -9.043921 -32.500810 2.339775 180.000037 79.481557 180.000037 -0.000000 -12.101094 -4.082109 -0.000000 -1.545329 0.000000 -3.647424 -24.962615 3.827221 -180.000037 78.369977 -180.000037 0.000000 -13.931446 -10.455456 -0.000000 -29.539345 -0.000000 -13.806786 19.904746 -5.964577 -5.232636 13.706695 18.922938 -17.281960 -0.000000 3.069475 36.098241 15.115349 -13.294282 -180.000032 -58.213291 155.186654 16.283056 -8.298219 -0.000000 17.666696 0.000000 -10.528821 -46.800810 17.723866 23.317203 -180.000037 -64.901832 -161.220155 -2.455902 -2.667299 0.000000 
42.875700 59.975400 2.863900 1.262697 -6.873958 -94.902728 -9.185066 -30.781741 2.966612 -180.000037 73.634319 -180.000037 0.000000 -10.264472 -5.160005 0.000000 -1.502182 -0.000000 -4.113262 -23.334858 4.106219 -180.000037 72.387455 180.000037 0.000000 -10.565554 -10.131415 -0.000000 -29.549580 -0.000000 -12.924963 19.325791 -5.987339 -7.875950 16.454974 20.927267 -16.256939 0.000000 4.354191 35.428827 16.821890 -13.749509 -180.000027 -58.396640 154.234504 14.728830 -8.453151 0.000000 14.434304 -0.000000 -11.617106 -47.430638 20.811847 25.041365 -180.000036 -63.750475 -160.704206 -1.599821 -2.955292 -0.000000 
